HIERARCHY
ROOT mixamorig:Hips
{
	OFFSET 0.000000 103.991501 0.000000
	CHANNELS 6 Xposition Yposition Zposition Xrotation Yrotation Zrotation
	JOINT mixamorig:Spine
	{
		OFFSET 0.000000 10.181602 0.131500
		CHANNELS 3 Xrotation Yrotation Zrotation
		JOINT mixamorig:Spine1
		{
			OFFSET 0.000000 10.083504 -1.000800
			CHANNELS 3 Xrotation Yrotation Zrotation
			JOINT mixamorig:Spine2
			{
				OFFSET 0.000000 9.100006 -1.373400
				CHANNELS 3 Xrotation Yrotation Zrotation
				JOINT mixamorig:Neck
				{
					OFFSET 0.000000 16.671707 -2.516200
					CHANNELS 3 Xrotation Yrotation Zrotation
					JOINT mixamorig:Head
					{
						OFFSET 0.000000 9.617905 1.685000
						CHANNELS 3 Xrotation Yrotation Zrotation
						JOINT mixamorig:HeadTop_End
						{
							OFFSET 0.000000 17.815201 2.585000
							CHANNELS 3 Xrotation Yrotation Zrotation
							End Site
							{
								OFFSET 0.000000 13.794495 0.000000
							}
						}
						JOINT mixamorig:LeftEye
						{
							OFFSET 3.067600 6.409500 9.283600
							CHANNELS 3 Xrotation Yrotation Zrotation
							End Site
							{
								OFFSET 0.000000 13.794495 0.000000
							}
						}
						JOINT mixamorig:RightEye
						{
							OFFSET -3.067600 6.409500 9.283500
							CHANNELS 3 Xrotation Yrotation Zrotation
							End Site
							{
								OFFSET 0.000000 13.794495 0.000000
							}
						}
					}
				}
				JOINT mixamorig:LeftShoulder
				{
					OFFSET 4.570400 10.945999 -2.628000
					CHANNELS 3 Xrotation Yrotation Zrotation
					JOINT mixamorig:LeftArm
					{
						OFFSET 10.592400 -0.524597 -2.232100
						CHANNELS 3 Xrotation Yrotation Zrotation
						JOINT mixamorig:LeftForeArm
						{
							OFFSET 27.841499 0.000000 0.000000
							CHANNELS 3 Xrotation Yrotation Zrotation
							JOINT mixamorig:LeftHand
							{
								OFFSET 28.328800 0.000000 0.000000
								CHANNELS 3 Xrotation Yrotation Zrotation
								JOINT mixamorig:LeftHandThumb1
								{
									OFFSET 2.466103 -1.576218 2.681689
									CHANNELS 3 Xrotation Yrotation Zrotation
									JOINT mixamorig:LeftHandThumb2
									{
										OFFSET 3.229782 -1.864716 1.864716
										CHANNELS 3 Xrotation Yrotation Zrotation
										JOINT mixamorig:LeftHandThumb3
										{
											OFFSET 2.652611 -1.531494 1.531488
											CHANNELS 3 Xrotation Yrotation Zrotation
											JOINT mixamorig:LeftHandThumb4
											{
												OFFSET 1.954605 -1.128494 1.128493
												CHANNELS 3 Xrotation Yrotation Zrotation
												End Site
												{
													OFFSET -0.000404 2.523392 0.000683
												}
											}
										}
									}
								}
								JOINT mixamorig:LeftHandIndex1
								{
									OFFSET 9.109299 -0.518112 2.259867
									CHANNELS 3 Xrotation Yrotation Zrotation
									JOINT mixamorig:LeftHandIndex2
									{
										OFFSET 3.676399 0.000000 0.000000
										CHANNELS 3 Xrotation Yrotation Zrotation
										JOINT mixamorig:LeftHandIndex3
										{
											OFFSET 2.883102 0.000000 0.000000
											CHANNELS 3 Xrotation Yrotation Zrotation
											JOINT mixamorig:LeftHandIndex4
											{
												OFFSET 2.392700 0.000000 0.000000
												CHANNELS 3 Xrotation Yrotation Zrotation
												End Site
												{
													OFFSET 0.000000 2.392700 0.001080
												}
											}
										}
									}
								}
								JOINT mixamorig:LeftHandMiddle1
								{
									OFFSET 9.533401 0.000000 0.000000
									CHANNELS 3 Xrotation Yrotation Zrotation
									JOINT mixamorig:LeftHandMiddle2
									{
										OFFSET 3.698196 0.000000 0.000000
										CHANNELS 3 Xrotation Yrotation Zrotation
										JOINT mixamorig:LeftHandMiddle3
										{
											OFFSET 2.950897 0.000000 0.000000
											CHANNELS 3 Xrotation Yrotation Zrotation
											JOINT mixamorig:LeftHandMiddle4
											{
												OFFSET 2.833900 0.000000 0.000000
												CHANNELS 3 Xrotation Yrotation Zrotation
												End Site
												{
													OFFSET 0.000000 2.833893 0.001278
												}
											}
										}
									}
								}
								JOINT mixamorig:LeftHandRing1
								{
									OFFSET 9.104500 -0.043060 -1.865119
									CHANNELS 3 Xrotation Yrotation Zrotation
									JOINT mixamorig:LeftHandRing2
									{
										OFFSET 3.153999 0.000000 0.000000
										CHANNELS 3 Xrotation Yrotation Zrotation
										JOINT mixamorig:LeftHandRing3
										{
											OFFSET 2.937698 0.000000 0.000000
											CHANNELS 3 Xrotation Yrotation Zrotation
											JOINT mixamorig:LeftHandRing4
											{
												OFFSET 2.647499 0.000000 0.000000
												CHANNELS 3 Xrotation Yrotation Zrotation
												End Site
												{
													OFFSET 0.000000 2.647507 0.001195
												}
											}
										}
									}
								}
								JOINT mixamorig:LeftHandPinky1
								{
									OFFSET 8.077797 -0.486984 -3.806321
									CHANNELS 3 Xrotation Yrotation Zrotation
									JOINT mixamorig:LeftHandPinky2
									{
										OFFSET 3.599998 0.000000 0.000000
										CHANNELS 3 Xrotation Yrotation Zrotation
										JOINT mixamorig:LeftHandPinky3
										{
											OFFSET 2.114197 0.000000 0.000000
											CHANNELS 3 Xrotation Yrotation Zrotation
											JOINT mixamorig:LeftHandPinky4
											{
												OFFSET 1.975700 0.000000 0.000000
												CHANNELS 3 Xrotation Yrotation Zrotation
												End Site
												{
													OFFSET 0.000000 1.975693 0.000892
												}
											}
										}
									}
								}
							}
						}
					}
				}
				JOINT mixamorig:RightShoulder
				{
					OFFSET -4.570000 10.946198 -2.628000
					CHANNELS 3 Xrotation Yrotation Zrotation
					JOINT mixamorig:RightArm
					{
						OFFSET -10.592800 -0.524796 -2.232100
						CHANNELS 3 Xrotation Yrotation Zrotation
						JOINT mixamorig:RightForeArm
						{
							OFFSET -27.841499 0.000000 0.000000
							CHANNELS 3 Xrotation Yrotation Zrotation
							JOINT mixamorig:RightHand
							{
								OFFSET -28.328800 0.000000 0.000000
								CHANNELS 3 Xrotation Yrotation Zrotation
								JOINT mixamorig:RightHandPinky1
								{
									OFFSET -8.076698 -0.486725 -3.806227
									CHANNELS 3 Xrotation Yrotation Zrotation
									JOINT mixamorig:RightHandPinky2
									{
										OFFSET -3.599998 0.000000 0.000000
										CHANNELS 3 Xrotation Yrotation Zrotation
										JOINT mixamorig:RightHandPinky3
										{
											OFFSET -2.114197 0.000000 0.000000
											CHANNELS 3 Xrotation Yrotation Zrotation
											JOINT mixamorig:RightHandPinky4
											{
												OFFSET -1.975700 0.000000 0.000000
												CHANNELS 3 Xrotation Yrotation Zrotation
												End Site
												{
													OFFSET 0.000000 1.975693 0.000919
												}
											}
										}
									}
								}
								JOINT mixamorig:RightHandRing1
								{
									OFFSET -9.103600 -0.043030 -1.865120
									CHANNELS 3 Xrotation Yrotation Zrotation
									JOINT mixamorig:RightHandRing2
									{
										OFFSET -3.153999 0.000000 0.000000
										CHANNELS 3 Xrotation Yrotation Zrotation
										JOINT mixamorig:RightHandRing3
										{
											OFFSET -2.937698 0.000000 0.000000
											CHANNELS 3 Xrotation Yrotation Zrotation
											JOINT mixamorig:RightHandRing4
											{
												OFFSET -2.647499 0.000000 0.000000
												CHANNELS 3 Xrotation Yrotation Zrotation
												End Site
												{
													OFFSET 0.000000 2.647507 0.001231
												}
											}
										}
									}
								}
								JOINT mixamorig:RightHandMiddle1
								{
									OFFSET -9.532501 0.000000 0.000000
									CHANNELS 3 Xrotation Yrotation Zrotation
									JOINT mixamorig:RightHandMiddle2
									{
										OFFSET -3.698196 0.000000 0.000000
										CHANNELS 3 Xrotation Yrotation Zrotation
										JOINT mixamorig:RightHandMiddle3
										{
											OFFSET -2.950897 0.000000 0.000000
											CHANNELS 3 Xrotation Yrotation Zrotation
											JOINT mixamorig:RightHandMiddle4
											{
												OFFSET -2.833900 0.000000 0.000000
												CHANNELS 3 Xrotation Yrotation Zrotation
												End Site
												{
													OFFSET 0.000000 2.833893 0.001318
												}
											}
										}
									}
								}
								JOINT mixamorig:RightHandIndex1
								{
									OFFSET -9.108299 -0.517853 2.259859
									CHANNELS 3 Xrotation Yrotation Zrotation
									JOINT mixamorig:RightHandIndex2
									{
										OFFSET -3.676399 0.000000 0.000000
										CHANNELS 3 Xrotation Yrotation Zrotation
										JOINT mixamorig:RightHandIndex3
										{
											OFFSET -2.883102 0.000000 0.000000
											CHANNELS 3 Xrotation Yrotation Zrotation
											JOINT mixamorig:RightHandIndex4
											{
												OFFSET -2.392700 0.000000 0.000000
												CHANNELS 3 Xrotation Yrotation Zrotation
												End Site
												{
													OFFSET 0.000000 2.392700 0.001113
												}
											}
										}
									}
								}
								JOINT mixamorig:RightHandThumb1
								{
									OFFSET -2.464798 -1.573944 2.681868
									CHANNELS 3 Xrotation Yrotation Zrotation
									JOINT mixamorig:RightHandThumb2
									{
										OFFSET -3.229782 -1.864716 1.864716
										CHANNELS 3 Xrotation Yrotation Zrotation
										JOINT mixamorig:RightHandThumb3
										{
											OFFSET -2.652542 -1.531448 1.531448
											CHANNELS 3 Xrotation Yrotation Zrotation
											JOINT mixamorig:RightHandThumb4
											{
												OFFSET -1.954605 -1.128494 1.128493
												CHANNELS 3 Xrotation Yrotation Zrotation
												End Site
												{
													OFFSET 0.000412 2.523392 0.000704
												}
											}
										}
									}
								}
							}
						}
					}
				}
			}
		}
	}
	JOINT mixamorig:LeftUpLeg
	{
		OFFSET 8.207800 -6.751701 -1.599600
		CHANNELS 3 Xrotation Yrotation Zrotation
		JOINT mixamorig:LeftLeg
		{
			OFFSET 0.000000 -44.370499 0.284600
			CHANNELS 3 Xrotation Yrotation Zrotation
			JOINT mixamorig:LeftFoot
			{
				OFFSET 0.000000 -44.427898 -2.982200
				CHANNELS 3 Xrotation Yrotation Zrotation
				JOINT mixamorig:LeftToeBase
				{
					OFFSET 0.000000 -8.728700 10.710600
					CHANNELS 3 Xrotation Yrotation Zrotation
					JOINT mixamorig:LeftToe_End
					{
						OFFSET 0.000000 -0.000700 9.278099
						CHANNELS 3 Xrotation Yrotation Zrotation
						End Site
						{
							OFFSET 0.000000 9.278100 0.000000
						}
					}
				}
			}
		}
	}
	JOINT mixamorig:RightUpLeg
	{
		OFFSET -8.207800 -6.751701 -1.599600
		CHANNELS 3 Xrotation Yrotation Zrotation
		JOINT mixamorig:RightLeg
		{
			OFFSET 0.000000 -44.370499 0.286200
			CHANNELS 3 Xrotation Yrotation Zrotation
			JOINT mixamorig:RightFoot
			{
				OFFSET 0.000000 -44.427700 -2.983800
				CHANNELS 3 Xrotation Yrotation Zrotation
				JOINT mixamorig:RightToeBase
				{
					OFFSET 0.000000 -8.728700 10.710600
					CHANNELS 3 Xrotation Yrotation Zrotation
					JOINT mixamorig:RightToe_End
					{
						OFFSET 0.000000 -0.000700 9.278100
						CHANNELS 3 Xrotation Yrotation Zrotation
						End Site
						{
							OFFSET 0.000000 9.278100 0.000000
						}
					}
				}
			}
		}
	}
}
MOTION
Frames: 4
Frame Time: 0.033333
0.143655 103.399475 1.422775 -3.753037 -5.218313 -3.762668 3.296822 1.542902 2.735402 1.151890 0.339457 1.552798 1.126015 0.361543 1.555886 5.626310 -0.078963 0.454682 -7.563347 1.375724 -0.080566 0.000000 0.000000 -0.000000 0.000000 0.000000 -0.000000 0.000000 0.000000 -0.000000 1.049450 -17.442068 -12.319428 3.916260 -19.989254 -69.765239 0.000007 -1.459367 0.000001 -33.230411 -1.364824 -6.186631 -0.663001 2.160312 4.832530 11.853578 25.421607 17.058298 -13.813936 3.537271 9.035994 -0.000002 -0.000001 0.000002 0.019863 -0.969579 -7.593546 0.267870 1.752891 -17.375720 0.057683 0.820952 -8.038007 -0.000000 -0.000000 -0.000001 -0.076308 2.665777 -15.696821 0.268782 1.755801 -17.405555 0.300526 1.853978 -18.413340 -0.000001 0.000001 -0.000003 0.136908 3.641771 -21.133519 0.386621 2.094788 -20.911917 0.283042 1.800637 -17.865004 -0.000001 0.000001 0.000003 0.927723 5.555918 -27.128036 0.268796 1.755841 -17.405894 0.241911 1.667701 -16.505897 -0.000000 -0.000001 -0.000004 1.203182 15.343656 14.705964 13.158857 27.555128 58.785150 -0.000002 6.693736 -0.000008 -20.179099 -0.514098 6.782799 0.748870 -4.885246 26.473753 0.214462 -1.398375 17.437248 0.193011 -1.328189 16.535809 0.000001 0.000002 0.000001 0.030608 -3.075763 20.451010 0.308443 -1.668281 20.948525 0.225824 -1.434040 17.897097 -0.000001 0.000001 -0.000002 -0.136228 -2.205108 14.998877 0.214446 -1.398350 17.436898 0.239776 -1.476530 18.446273 -0.000001 0.000001 -0.000002 0.038561 1.262296 6.823711 0.213721 -1.396034 17.407027 0.046024 -0.653846 8.053231 0.000001 0.000000 0.000002 -1.665250 -0.174482 -4.219032 12.710954 -29.825336 -16.130960 -15.549411 -3.559428 -12.707120 0.000001 -0.000001 -0.000002 -10.784404 14.738572 10.336830 12.158060 2.032336 4.171525 1.276668 0.514720 -7.111238 -4.928526 0.000006 -0.000001 -0.000000 -0.000000 -0.000000 0.652185 -10.390663 3.516988 7.315466 -9.765293 -3.277915 -3.644051 -1.648621 3.193884 -7.282871 0.000002 0.000001 -0.000001 -0.000001 -0.000000 
0.420863 103.406471 1.333425 -3.050950 -6.119655 -3.651479 3.427432 1.655268 2.809426 1.205576 0.357724 1.579361 1.179616 0.379753 1.582896 5.423218 -0.024141 0.436799 -8.133394 1.766417 -0.412627 0.000000 -0.000000 -0.000000 0.000000 -0.000000 -0.000000 0.000000 -0.000000 -0.000000 1.188950 -17.441115 -11.936339 3.483836 -21.142043 -68.992574 0.000005 -1.584883 0.000006 -33.405537 -1.097175 -5.629441 -0.663003 2.160312 4.832520 12.194888 25.749125 16.881205 -13.866630 3.306056 9.111505 0.000000 -0.000001 -0.000000 0.115324 -0.666090 -8.422761 0.267821 1.752736 -17.374106 0.057658 0.820789 -8.036394 0.000001 -0.000001 -0.000004 -0.050829 2.798386 -16.256518 0.267715 1.752396 -17.370669 0.299392 1.850571 -18.378250 -0.000001 0.000000 -0.000003 0.149649 3.695017 -21.621823 0.388315 2.099208 -20.958166 0.284501 1.805155 -17.911367 -0.000000 0.000001 0.000004 0.851175 5.422597 -27.452070 0.270733 1.762005 -17.468993 0.243751 1.673898 -16.569025 -0.000001 0.000001 -0.000001 1.181089 15.331820 14.626725 13.418713 26.288469 57.517761 0.000001 9.473369 -0.000008 -19.991656 0.121434 3.861911 0.504934 -4.606845 27.217313 0.213419 -1.395063 17.394581 0.191942 -1.324586 16.489702 -0.000001 0.000000 -0.000001 -0.048408 -2.905909 21.086240 0.312139 -1.677906 21.075203 0.229015 -1.443887 18.024183 -0.000000 0.000003 0.000004 -0.165352 -2.165075 15.680776 0.216025 -1.403365 17.501496 0.241458 -1.481564 18.511517 -0.000001 0.000001 -0.000000 -0.062889 1.271529 7.667932 0.214663 -1.399046 17.445787 0.046480 -0.657031 8.092698 0.000000 -0.000000 0.000001 -1.665249 -0.174483 -4.219040 12.695725 -29.052910 -16.217642 -15.565130 -3.511329 -12.786297 -0.000000 0.000001 -0.000001 -11.484880 15.110231 10.442091 12.183062 2.511170 3.684181 1.249606 0.518515 -6.721318 -4.928527 0.000007 -0.000001 -0.000000 0.000001 0.000000 -0.324438 -10.251297 3.193854 7.313381 -9.515756 -3.194486 -3.395052 -1.165497 3.258915 -7.292726 0.000001 0.000000 0.000001 -0.000001 -0.000000 
0.698072 103.413475 1.244075 -2.345759 -7.019659 -3.528956 3.557904 1.767805 2.883198 1.259253 0.376015 1.605907 1.233207 0.397987 1.609889 5.220143 0.030745 0.419110 -8.701327 2.160405 -0.740875 -0.000000 0.000000 0.000000 -0.000000 0.000000 0.000000 -0.000000 0.000000 0.000000 1.328442 -17.439273 -11.553243 3.064690 -22.300378 -68.222969 -0.000001 -1.710398 0.000009 -33.583244 -0.831233 -5.071458 -0.663006 2.160315 4.832513 12.538281 26.075688 16.701447 -13.919009 3.074775 9.186788 0.000001 -0.000000 0.000004 0.215169 -0.363996 -9.252489 0.267769 1.752580 -17.372484 0.057635 0.820626 -8.034779 0.000001 -0.000001 -0.000003 -0.024053 2.930745 -16.816351 0.266652 1.748990 -17.335782 0.298263 1.847164 -18.343159 0.000001 0.000001 -0.000001 0.162845 3.748153 -22.110174 0.390008 2.103628 -21.004416 0.285965 1.809672 -17.957732 -0.000001 -0.000000 0.000002 0.773888 5.289710 -27.776211 0.272674 1.768165 -17.532090 0.245599 1.680092 -16.632149 -0.000001 -0.000002 0.000000 1.158980 15.320019 14.547485 13.644891 25.016756 56.269854 0.000005 12.254639 -0.000005 -19.771895 0.747011 0.936718 0.257466 -4.331609 27.961799 0.212381 -1.391748 17.351906 0.190878 -1.320986 16.443600 -0.000000 -0.000000 0.000002 -0.129290 -2.736935 21.721629 0.315856 -1.687519 21.201877 0.232228 -1.453723 18.151272 -0.000001 0.000000 -0.000001 -0.194951 -2.125389 16.362700 0.217613 -1.408379 17.566096 0.243144 -1.486597 18.576764 -0.000001 -0.000002 -0.000002 -0.164472 1.279266 8.512217 0.215608 -1.402058 17.484557 0.046936 -0.660215 8.132162 -0.000002 0.000001 0.000003 -1.665246 -0.174484 -4.219047 12.681934 -28.280426 -16.303452 -15.580773 -3.463205 -12.865452 0.000001 0.000001 0.000002 -12.187333 15.480622 10.552244 12.212150 2.989789 3.196414 1.222517 0.522123 -6.331388 -4.928527 0.000007 -0.000001 -0.000000 0.000001 0.000000 -1.299886 -10.106528 2.873301 7.310929 -9.266222 -3.111107 -3.146630 -0.682092 3.321836 -7.302583 -0.000002 -0.000001 0.000000 0.000001 0.000000 
0.975280 103.420471 1.154725 -1.637244 -7.918005 -3.395023 3.688240 1.880509 2.956719 1.312923 0.394332 1.632436 1.286791 0.416247 1.636866 5.017082 0.085691 0.401616 -9.267126 2.557601 -1.065277 0.000000 0.000000 0.000000 0.000000 0.000000 0.000000 0.000000 0.000000 0.000000 1.467912 -17.436539 -11.170169 2.659017 -23.463624 -67.456137 -0.000006 -1.835914 0.000012 -33.763520 -0.567046 -4.512703 -0.663007 2.160316 4.832504 12.883768 26.401268 16.519000 -13.971067 2.843425 9.261840 -0.000000 0.000000 0.000003 0.319371 -0.063399 -10.082679 0.267722 1.752423 -17.370867 0.057613 0.820461 -8.033166 0.000001 -0.000001 -0.000000 0.004023 3.062831 -17.376298 0.265588 1.745584 -17.300902 0.297131 1.843754 -18.308081 0.000001 0.000000 -0.000002 0.176495 3.801175 -22.598562 0.391709 2.108045 -21.050665 0.287432 1.814189 -18.004102 0.000001 0.000003 0.000001 0.695865 5.157260 -28.100464 0.274625 1.774324 -17.595189 0.247451 1.686285 -16.695277 0.000000 0.000001 -0.000003 1.136854 15.308242 14.468250 13.838458 23.741213 55.040222 0.000005 15.034271 -0.000004 -19.520631 1.360135 -1.989432 0.006543 -4.059619 28.707183 0.211347 -1.388432 17.309240 0.189814 -1.317384 16.397490 -0.000002 0.000001 0.000004 -0.212027 -2.568873 22.357151 0.319600 -1.697128 21.328553 0.235464 -1.463552 18.278355 0.000002 0.000000 -0.000000 -0.225018 -2.086060 17.044606 0.219202 -1.413389 17.630684 0.244836 -1.491628 18.642009 -0.000000 0.000001 0.000004 -0.266149 1.285506 9.356475 0.216556 -1.405067 17.523313 0.047396 -0.663401 8.171625 -0.000001 0.000000 0.000000 -1.665243 -0.174484 -4.219055 12.669545 -27.507962 -16.388445 -15.596353 -3.415063 -12.944586 0.000001 -0.000001 -0.000001 -12.891769 15.849676 10.667308 12.245329 3.468125 2.708190 1.195406 0.525548 -5.941464 -4.928527 0.000010 -0.000001 0.000000 0.000000 0.000000 -2.273980 -9.956422 2.555466 7.308113 -9.016690 -3.027777 -2.898761 -0.198428 3.382657 -7.312436 -0.000004 -0.000001 -0.000001 0.000002 0.000000 
